<svg xmlns="http://www.w3.org/2000/svg"  viewBox="0 0 64 64" width="64px" height="64px" baseProfile="basic"><linearGradient id="GDDFkPWo6KsynKrNEeqbNa" x1="172.782" x2="229.847" y1="1122.16" y2="1122.16" gradientTransform="rotate(90 658.594 486.934)" gradientUnits="userSpaceOnUse"><stop offset="0" stop-color="#6dc7ff"/><stop offset="1" stop-color="#eaabff"/></linearGradient><path fill="url(#GDDFkPWo6KsynKrNEeqbNa)" d="M33.997,58.757L7.242,32.004L34.003,5.243l3.963,3.964	l-2.636,0.928c-7.869,3.655-13.329,11.627-13.329,20.868c0,9.524,5.796,17.699,14.051,21.191l3.441,1.068L33.997,58.757z"/><linearGradient id="GDDFkPWo6KsynKrNEeqbNb" x1="172.986" x2="234.7" y1="1121.002" y2="1121.002" gradientTransform="rotate(90 660.026 488.976)" gradientUnits="userSpaceOnUse"><stop offset="0" stop-color="#1a6dff"/><stop offset="1" stop-color="#c822ff"/></linearGradient><path fill="url(#GDDFkPWo6KsynKrNEeqbNb)" d="M33.289,63.708L2.293,32.711	c-0.391-0.391-0.391-1.024,0-1.415L33.297,0.292c0.391-0.391,1.024-0.391,1.415,0l10.029,10.031c0.612,0.612,0.205,1.665-0.66,1.707	c-10.06,0.48-18.08,8.797-18.08,18.973C26.001,41.489,34.515,50,45.002,50c0.324,0,0.648-0.007,0.968-0.024	c0.912-0.047,1.404,1.061,0.759,1.707L34.703,63.708C34.313,64.099,33.679,64.099,33.289,63.708z M33.997,61.587l9.653-9.655	l-0.795-0.04C32.27,50.816,24.001,41.871,24.001,31.003c0-9.843,6.785-18.111,15.933-20.379l1.903-0.375l-7.833-7.836L4.414,32.004	L33.997,61.587z M36.003,31.003c0-4.967,4.031-8.997,8.999-8.997c4.967,0,8.999,4.031,8.999,8.997c0,4.968-4.032,8.997-8.999,8.997	C40.034,40,36.003,35.971,36.003,31.003z M52.001,31.003c0-3.861-3.137-6.997-6.999-6.997c-3.863,0-6.999,3.136-6.999,6.997	c0,3.863,3.136,6.997,6.999,6.997C48.863,38,52.001,34.865,52.001,31.003z"/><linearGradient id="GDDFkPWo6KsynKrNEeqbNc" x1="-675.751" x2="-675.751" y1="53.809" y2="64.479" gradientTransform="translate(720.753 -28.58)" gradientUnits="userSpaceOnUse"><stop offset="0" stop-color="#6dc7ff"/><stop offset="1" stop-color="#eaabff"/></linearGradient><path fill="url(#GDDFkPWo6KsynKrNEeqbNc)" d="M45.002,26c2.761,0,5.004,2.241,5.004,5.003	s-2.243,5.003-5.004,5.003c-2.761,0-5.004-2.241-5.004-5.003S42.241,26,45.002,26z"/></svg>