<svg xmlns="http://www.w3.org/2000/svg"  viewBox="0 0 64 64" width="64px" height="64px"><linearGradient id="NENspGEJruqOw_B5L5ni7a" x1="21.76" x2="21.76" y1="21.952" y2="56.492" gradientUnits="userSpaceOnUse"><stop offset="0" stop-color="#6dc7ff"/><stop offset="1" stop-color="#e6abff"/></linearGradient><path fill="url(#NENspGEJruqOw_B5L5ni7a)" d="M21,24.092c0-0.69,0.03-1.42,0.1-2.14c-0.38,0.05-0.78,0.09-1.18,0.12 c-3.27,6.19-4.92,12.58-4.92,19.02c0,3.84,0.77,7.83,2.06,10.68c1.08,2.38,2.45,3.95,4.14,4.72l7.32-21.97 C24.44,33.192,21,29.502,21,24.092z"/><linearGradient id="NENspGEJruqOw_B5L5ni7b" x1="33" x2="33" y1="3.092" y2="61.092" gradientUnits="userSpaceOnUse"><stop offset="0" stop-color="#1a6dff"/><stop offset="1" stop-color="#c822ff"/></linearGradient><path fill="url(#NENspGEJruqOw_B5L5ni7b)" d="M43,11.092c-1.61,0-2.911,0.155-3.917,0.349c2.884-4.527,6.328-6.434,6.389-6.467	c0.486-0.261,0.67-0.866,0.41-1.353c-0.26-0.487-0.865-0.672-1.353-0.411c-0.189,0.1-4.274,2.339-7.519,7.794	C34.908,7.291,32.71,5.092,27,5.092c-11.408,0-15,9.354-15,12c0,1.297,1.537,2.601,4.471,2.955C12.856,26.85,11,33.919,11,41.092	c0,15.788,8.171,20,13,20c4.392,0,11.1-2.457,18.116-14.165c3.181-5.308,5.438-10.196,6.745-14.563	c0.798,0.449,1.536,0.728,2.139,0.728c4,0,4-6.307,4-9C55,19.559,51.48,11.092,43,11.092z M40.4,45.9	C35.302,54.407,29.478,59.092,24,59.092c-8.683,0-11-11.314-11-18c0-7.139,1.923-14.185,5.689-20.955	c1.836-0.056,3.562-0.351,4.791-0.621C23.153,20.963,23,22.709,23,24.092c0,5.609,4.519,8.962,8.887,8.962	c5.067,0,8.76-4.285,10.252-6.363c1.224,1.263,3.129,3.124,4.977,4.514C45.892,35.555,43.641,40.491,40.4,45.9z M51,31.092	c-1.268,0-5.279-3.468-8.268-6.681c-0.19-0.205-0.456-0.319-0.732-0.319c-0.036,0-0.073,0.003-0.109,0.007	c-0.314,0.034-0.594,0.216-0.753,0.488c-0.038,0.064-3.858,6.467-9.25,6.467c-3.385,0-6.887-2.604-6.887-6.962	c0-1.86,0.311-4.434,0.887-5.537c0.187-0.359,0.14-0.795-0.12-1.105c-0.26-0.31-0.681-0.435-1.066-0.312	c-0.032,0.011-3.252,1.011-6.618,1.011c-2.978,0-4.001-0.916-4.083-1.057c0-2.117,3.251-10,13-10c5.234,0,6.727,1.87,9.113,6.461	c0.017,0.033,0.047,0.053,0.067,0.083c0.038,0.058,0.078,0.11,0.128,0.159c0.047,0.046,0.097,0.083,0.151,0.118	c0.034,0.022,0.057,0.054,0.093,0.073c0.022,0.011,0.047,0.007,0.069,0.016c0.085,0.035,0.173,0.052,0.264,0.062	c0.038,0.004,0.075,0.027,0.113,0.027c0.016,0,0.032-0.006,0.048-0.007c0.022-0.001,0.043-0.006,0.065-0.009	c0.099-0.011,0.193-0.037,0.284-0.076c0.017-0.007,0.035-0.006,0.052-0.014c0.018-0.009,1.862-0.895,5.553-0.895	c7.63,0,10,8.062,10,11C53,28.671,52.309,31.092,51,31.092z"/></svg>